<svg xmlns="http://www.w3.org/2000/svg" width="512" height="512" viewBox="0 0 512 512">
  <rect width="512" height="512" rx="96" fill="#241a30"/>
  <g fill="#4d3d69">
    <rect x="36" y="88" width="40" height="56" rx="12"/>
    <rect x="36" y="228" width="40" height="56" rx="12"/>
    <rect x="36" y="368" width="40" height="56" rx="12"/>
    <rect x="436" y="88" width="40" height="56" rx="12"/>
    <rect x="436" y="228" width="40" height="56" rx="12"/>
    <rect x="436" y="368" width="40" height="56" rx="12"/>
  </g>
  <path d="M50 88 C14 62 6 40 20 26 C31 15 45 18 50 30 C55 18 69 15 80 26 C94 40 86 62 50 88 Z"
        fill="#e8709e" transform="translate(131,127) scale(2.5)"/>
</svg>
